<svg xmlns="http://www.w3.org/2000/svg" height="500" width="500"><path fill="#949494" d="M-1.242-1.242h500v500h-500z"/><path d="M250 443.548c-59.173 0-112.198-26.814-147.681-68.75 18.951-35.685 56.048-60.282 99.294-60.282 2.42 0 4.839.403 7.157 1.109 13.105 4.234 26.815 6.956 41.23 6.956 14.415 0 28.226-2.722 41.23-6.956 2.318-.706 4.738-1.109 7.157-1.109 43.246 0 80.343 24.597 99.294 60.282-35.483 41.936-88.508 68.75-147.681 68.75zM250 96.774c48.992 0 88.71 39.718 88.71 88.71 0 48.992-39.718 88.71-88.71 88.71-48.992 0-88.71-39.718-88.71-88.71 0-48.992 39.718-88.71 88.71-88.71z" fill="#fff"/></svg>